<?xml version="1.0" encoding="UTF-8" standalone="no"?>
<!-- Created with Inkscape (http://www.inkscape.org/) -->

<svg
   width="1136.1849"
   height="1128.0669"
   viewBox="0 0 300.61561 298.4677"
   version="1.1"
   id="svg5411"
   inkscape:version="1.2.2 (b0a8486541, 2022-12-01)"
   sodipodi:docname="pattern.svg"
   xmlns:inkscape="http://www.inkscape.org/namespaces/inkscape"
   xmlns:sodipodi="http://sodipodi.sourceforge.net/DTD/sodipodi-0.dtd"
   xmlns="http://www.w3.org/2000/svg"
   xmlns:svg="http://www.w3.org/2000/svg">
  <sodipodi:namedview
     id="namedview5413"
     pagecolor="#ffffff"
     bordercolor="#666666"
     borderopacity="1.0"
     inkscape:showpageshadow="2"
     inkscape:pageopacity="0.0"
     inkscape:pagecheckerboard="0"
     inkscape:deskcolor="#d1d1d1"
     inkscape:document-units="mm"
     showgrid="false"
     inkscape:zoom="0.22627417"
     inkscape:cx="-1657.2815"
     inkscape:cy="1126.9514"
     inkscape:window-width="3756"
     inkscape:window-height="2107"
     inkscape:window-x="84"
     inkscape:window-y="0"
     inkscape:window-maximized="1"
     inkscape:current-layer="svg5411" />
  <defs
     id="defs5408" />
  <path
     id="rect6412"
     style="fill:#134a39;stroke:none;stroke-width:0.55327;stroke-linecap:round;stroke-linejoin:round;stroke-opacity:0.74779242"
     d="m 33.04122,0 -9.8488,5.32424 5.32725,10.66049 H 17.05739 V 28.24579 L 6.3969,22.11076 3e-4,32.77425 v 11.45057 l 17.05709,28.51936 v 14.1226 L 3e-4,91.40124 v 6.12603 l 22.39304,5.32724 -9.86171,9.86741 3.46211,12.51631 L 0,120.70978 v 6.12903 l 17.86758,4.53446 4.52546,17.84055 v 0.004 L 17.86758,167.06438 0,171.60154 v 6.12603 l 15.99374,-4.52545 -3.46211,12.51631 9.86171,9.86741 L 3e-4,200.91008 v 6.12603 l 17.05709,4.53446 v 14.12319 L 3e-4,254.21253 v 11.45357 l 6.3993,10.66919 10.66049,-6.13503 v 12.26106 h 11.45928 l -5.32725,10.66049 9.8527,5.32725 c -0.003,0.006 -0.005,0.0123 -0.006,0.0186 h 11.4821 l 29.31004,-15.98354 h 14.11389 l 4.53386,15.98354 h 5.33745 l 6.11672,-21.31168 9.86801,9.05992 12.52502,-2.66335 -4.52545,14.91508 h 5.32424 l 5.32724,-16.78653 17.85887,-5.32724 17.85827,5.32724 5.32725,16.78653 h 5.32033 l -4.52425,-14.91208 12.52202,2.66338 9.86801,-9.05992 6.11552,21.30868 h 5.33684 l 4.53446,-15.98714 h 14.11389 l 29.31694,15.98714 h 11.47339 v 0 l 9.8527,-5.32725 -5.32724,-10.66049 h 11.45927 v -12.26106 l 10.66049,6.13503 6.3966,-10.6692 V 254.22665 L 283.56122,225.71269 V 211.5895 l 17.05408,-4.53386 v -6.12843 l -22.39304,-5.32725 9.86171,-9.86741 -3.46211,-12.51631 15.99374,4.52545 v -6.12663 l -17.86458,-4.53446 -4.52545,-17.84656 v -0.003 l 4.52545,-17.84056 17.86458,-4.53506 v -6.13083 l -15.99074,4.52485 3.46211,-12.51631 -9.86171,-9.86741 22.39004,-5.32664 V 91.41005 L 283.56122,86.87618 V 72.75359 L 300.6153,44.23903 V 32.78396 l -6.3966,-10.6698 -10.66049,6.13504 V 15.98813 H 272.09894 L 277.42618,5.32764 267.57438,0.001 H 256.09979 L 226.78765,15.98573 H 212.67377 L 208.1393,0.001 h -5.33955 L 196.68303,21.31327 186.81502,12.25336 174.293,14.91728 178.81845,0.001 h -5.32424 L 168.16697,16.78482 150.3081,22.11206 132.44983,16.78482 127.12379,0.001 h -5.32274 l 4.52545,14.91268 -12.52502,-2.66335 -9.86801,9.06291 L 97.81675,9.7e-4 H 92.4805 L 87.94544,15.9887 H 73.83155 L 44.514,6e-4 Z m 6.13894,2.66161 23.18251,13.32381 H 35.71745 L 30.3842,7.99756 Z m 222.25769,0 8.79595,5.33325 -5.33325,7.99056 H 238.25534 Z M 95.14322,10.65818 99.67768,25.58016 87.94514,37.3034 90.61789,26.64291 83.68407,22.10905 h 8.79595 z m 110.32856,0.004 2.66335,11.45357 h 8.79415 l -6.92902,4.53146 2.66924,10.66049 -11.73194,-11.72323 z m -90.87242,7.98846 13.32442,2.66338 3.73567,13.33042 -9.8617,9.58844 -12.53133,-3.46211 -3.46211,-13.32441 z m 71.41627,0 8.79596,8.79536 -3.46271,13.32441 -12.53073,3.46211 -9.8617,-9.58844 3.73537,-13.33042 z M 22.39064,22.11275 h 9.59143 L 45.31249,45.29526 22.39094,31.98016 Z m 15.98773,0 H 71.95741 L 84.48303,29.31113 79.94857,45.29886 67.69621,57.56593 55.16488,50.63211 Z m 190.27622,0 h 33.58204 l -16.78651,28.51936 -12.53073,6.93382 -12.25236,-12.26707 -4.53446,-15.98773 z m 39.98134,0 h 9.58843 v 9.86741 l -22.91855,13.3151 z m -134.31316,0.79885 15.98773,4.53446 15.98713,-4.53446 -3.4564,13.32381 9.853,9.05991 -22.38373,6.13564 -22.38432,-6.13564 9.85269,-9.05991 z m -126.3253,7.19898 9.05992,4.53446 V 61.29026 L 3.73598,38.10715 Z m 284.62006,0.003 4.26089,7.99657 -13.32081,23.18311 V 34.64804 Z m -191.33927,1.86805 3.72666,13.3151 12.26107,3.47142 -15.98773,15.99374 -22.12878,6.11731 6.13504,-22.91284 z m 98.06149,0.003 15.99373,15.98473 6.13504,22.91285 -22.12877,-6.11732 -15.98774,-15.99374 12.26107,-3.47111 z m 78.88461,6.12093 V 70.8768 L 271.29955,84.20662 254.24307,79.94573 241.982,67.4171 249.97857,54.09329 Z M 22.39364,38.10856 50.63973,54.09629 58.6363,67.4201 46.37524,79.95143 29.31875,84.21292 22.39364,70.88251 Z m 101.26864,12.52622 15.98773,3.46211 -10.66049,3.47172 v 10.65118 l -6.39058,-9.58844 -10.6692,3.46271 z m 53.29344,0 11.73254,11.45928 -10.66919,-3.46271 -6.39059,9.58844 V 57.56861 l -10.66049,-3.47172 z m -99.67107,5.33325 -4.26119,15.98773 -15.99374,4.2609 7.99717,-7.99717 -4.52846,-7.99056 7.99657,4.53446 z m 146.0487,0 8.78965,8.79536 7.99657,-4.53446 -4.52485,7.98785 7.99356,8.00018 -15.99373,-4.2609 z m -73.02585,1.60061 15.98773,3.72666 V 78.08122 L 150.3075,105.53443 134.32037,78.08082 V 61.2949 Z m -30.38089,7.19538 9.05991,15.18594 v 31.98147 L 99.67768,94.86564 91.68111,81.55053 105.00492,69.28346 Z m 60.76479,0 14.92168,4.51974 13.32381,12.26707 -7.99657,13.31511 -29.30884,17.06579 V 79.95026 Z m -87.41001,7.99116 -7.99717,7.99657 4.53446,7.99717 -7.99657,-4.53446 -8.79595,9.05991 4.26089,-15.99434 z m 114.05823,0 15.99433,4.52485 4.2612,15.99434 -8.79596,-9.05991 -7.99657,4.53446 4.53447,-7.99717 z m -136.181,5.32424 -6.13564,23.18311 -15.98713,15.99374 -3.72666,-13.32441 -12.26767,-3.73568 15.99433,-15.98773 z m 158.29476,0.003 22.11976,6.13564 15.99374,15.98773 -12.26407,3.72967 -3.72667,13.32381 -15.98773,-15.99374 z M 22.39364,82.61748 26.65483,90.61405 38.37867,86.87838 26.65483,98.60161 10.6701,94.86594 22.39394,91.41254 Z m 255.82772,0 v 8.79536 l 11.72684,3.4534 -15.98773,3.73567 -11.72384,-11.72323 11.72384,3.73567 z m -143.89859,6.92452 12.26107,21.32098 -4.27051,7.99116 -7.99056,-4.25519 z m 31.97246,0 v 25.05695 l -7.99056,4.25519 -4.2705,-7.99116 z m -83.67433,1.87096 12.52202,7.18907 16.78652,29.31815 H 81.02002 l -15.18594,-7.98786 4.52545,-15.99374 z m 135.3732,0 12.26106,12.52562 4.52546,15.99374 -15.18594,7.98786 h -30.90942 l 16.78652,-29.31815 z m -112.98918,12.52322 23.9813,14.1226 v 9.8617 h -9.8587 z m 90.60816,0 -14.1232,23.9843 h -9.8617 v -9.8617 z m -167.09341,0.79825 12.52202,3.4627 3.47171,13.32381 -8.79595,9.05992 -13.32381,-3.73568 -3.72667,-12.24875 z m 243.57867,0.004 9.85299,9.8587 -3.72667,12.25176 -13.32381,3.73567 -8.79595,-9.05991 3.47172,-13.32381 z m -209.73537,7.19478 -2.66335,10.65178 9.59714,5.33325 H 57.83748 l -2.66923,10.66049 -4.52546,-15.19495 z m 175.88906,0.004 11.72324,11.45357 -4.52545,15.19495 -2.66924,-10.66049 H 231.3213 l 9.59414,-5.33625 z m -87.95354,5.33956 6.39659,9.58843 9.58844,-5.32724 v 12.52202 h 12.52502 l -6.12542,9.86801 10.65118,5.30622 h 0.009 l -10.65179,5.31493 6.12603,9.86741 h -12.52262 v 12.52262 l -9.58843,-5.32724 -6.3993,9.58844 -6.39599,-9.58844 -9.58844,5.32724 v -12.52262 h -12.52262 l 6.12603,-9.86741 -10.65178,-5.31493 h -0.009 l 10.65178,-5.30622 -6.12603,-9.86801 h 12.52202 v -12.52202 l 9.58844,5.32724 z m -103.92025,10.65238 6.12603,21.30326 v 0.003 l -6.12603,21.30867 -9.86171,-8.79535 -12.53133,3.47111 4.53507,-15.98142 v -0.003 l -4.53507,-15.98202 12.53133,3.47141 z m 207.86152,0 9.86171,8.79595 12.53073,-3.47141 -4.53446,15.97902 v 0.003 l 4.53446,15.98143 -12.53073,-3.47112 -9.86171,8.79536 -6.12602,-21.30867 z m -164.42078,6.12092 h 25.84643 l 4.2612,7.19778 -7.99657,5.33385 z m 95.13361,0 h 25.84643 l -22.11406,12.53133 -7.99717,-5.33385 z m -122.58962,0.006 h 16.78651 l 26.65423,15.17723 -0.006,0.003 -26.64822,15.18234 H 62.36298 L 57.83752,149.2363 v -0.003 z m 159.10555,0 h 16.78652 l 4.52545,15.17723 v 0.003 l -4.52545,15.18234 h -16.78652 l -26.64822,-15.18234 -0.006,-0.003 z m -109.53878,17.83184 7.99657,5.33325 -4.2612,7.19778 H 89.81868 Z m 76.75852,0 22.11106,12.53073 h -25.84643 l -4.26119,-7.19778 z m -133.52338,7.99417 2.67275,10.66349 h 11.45928 l -9.59714,5.33325 2.66335,10.65178 -11.72324,-11.45357 z m 190.28524,0.003 4.52545,15.19495 -11.72324,11.45357 2.66338,-10.65178 -9.59714,-5.33325 h 11.45928 z m -209.73237,7.99777 8.79595,9.05992 -3.47171,13.32381 -12.52202,3.4627 -9.8527,-9.8587 3.72667,-12.25235 z m 229.1795,0 13.32441,3.73568 3.72667,12.25235 -9.853,9.86171 -12.52202,-3.46571 -3.47141,-13.32381 z m -76.20899,2.66101 h 30.90942 l 15.18594,7.99056 -4.52545,15.99374 -12.26107,12.52262 -12.52202,-7.18877 z m -69.56044,0.003 h 9.8623 v 9.86171 l -23.9849,14.12319 z m 52.50066,0 h 9.8617 l 14.1232,23.9849 -23.9849,-14.12319 z m -90.60816,0.003 h 30.90641 L 95.14202,199.865 82.62,207.05377 70.35893,194.53175 65.83348,178.53741 Z m 61.29331,9.06351 4.27051,7.99117 -12.26107,21.32098 v -25.05696 z m 15.99074,0 7.99056,4.25519 v 25.05696 l -12.26106,-21.32098 z m -109.26251,1.58887 15.98473,15.99944 6.13503,23.18311 -22.11976,-6.13504 -15.99374,-15.98773 12.26707,-3.73597 z m 202.53729,0.006 3.72666,13.32441 12.26707,3.73568 -15.99373,15.98773 -22.12277,6.12903 6.13504,-23.18311 z m -122.59263,5.32484 v 31.98147 l -9.05991,15.18594 -14.92169,-4.51974 -13.32381,-12.26707 7.99657,-13.31511 z m 42.64196,0 29.30944,17.06579 7.99657,13.31511 -13.32381,12.26707 -14.92199,4.51974 -9.05991,-15.18594 z m -21.32098,6.3993 15.98773,27.45601 v 16.78652 l -15.98773,3.72667 -15.98713,-3.72667 v -16.78652 z m -123.64967,6.93142 11.72384,11.72323 -11.72384,-3.73537 -4.26089,7.99657 v -8.79536 l -11.72684,-3.4534 z m 247.30234,0.003 15.98773,3.73568 -11.72384,3.4534 v 8.79535 l -4.26389,-7.99657 -11.72384,3.73568 z m -200.93671,5.32424 8.79595,9.06052 7.99657,-4.53507 -4.53446,7.99717 7.99657,7.99657 -15.99374,-4.52485 z m 154.56808,0.004 -4.26149,15.99374 -15.99374,4.52545 7.99717,-7.99716 -4.53446,-7.99717 7.99657,4.53506 z m 43.70801,9.06052 6.92481,13.32982 v 32.77124 l -28.24579,-15.98473 -7.99657,-13.32381 12.26107,-12.53133 z m -241.9811,0.003 17.05648,4.2612 12.26107,12.52862 -7.99657,13.32381 -28.24609,15.98773 V 227.5877 Z m 214.26683,7.99117 -7.99717,7.99716 4.52846,7.99057 -7.99657,-4.53447 -8.79025,8.79536 4.26149,-15.98773 z m -186.55556,0.003 15.99374,4.26119 4.26119,15.98773 -8.78965,-8.79535 -7.99657,4.53446 4.52485,-7.98786 z m 22.11976,5.33385 22.12878,6.12032 15.98773,15.99374 -12.26107,3.47141 -3.72666,13.3151 -15.99374,-15.98773 z m 142.31904,0 -6.13504,22.91284 -15.99373,15.98773 -3.72667,-13.3151 -12.26107,-3.47141 15.98774,-15.99374 z m -92.479,2.66395 v 10.65118 l 10.66049,3.47141 -15.98773,3.46211 -11.73254,-11.45867 10.6692,3.4621 z m 42.63896,0 6.39059,9.58843 10.66919,-3.4621 -11.73254,11.45867 -15.98773,-3.46211 10.66049,-3.47141 z m -154.56809,6.92962 v 26.64461 h -0.003 l -9.05992,4.53507 -4.26149,-7.99717 z m 266.50022,0.003 13.32141,23.17801 -4.26149,7.99656 -9.05992,-4.53446 z m -215.8644,3.72156 12.25236,12.26767 4.53446,15.98773 -12.52202,7.19839 H 38.37897 l 16.78591,-28.51937 z m 165.22258,0 12.53073,6.93442 16.78651,28.51937 h -33.57904 l -12.52502,-7.19839 4.53446,-15.98773 z m -82.61429,6.13624 22.38432,6.13504 -9.85269,9.05991 3.4594,13.32381 -15.98773,-4.53446 -15.98713,4.53446 3.4534,-13.32381 -9.8527,-9.05991 z M 45.31519,253.17599 31.98478,276.3585 h -9.59144 v -9.86741 z m 209.99062,0 22.91855,13.3151 v 9.86741 h -9.58843 z m -133.50836,1.06277 9.8617,9.58844 -3.73568,13.33041 -13.32441,2.66338 -8.79535,-8.79535 3.46211,-13.32381 z m 57.0201,0 12.53073,3.46271 3.46271,13.32381 -8.79596,8.79535 -13.32381,-2.66338 -3.73537,-13.33041 z m -90.87241,6.92542 11.73254,11.72323 -4.53446,14.92198 -2.66338,-11.45056 h -8.79595 l 6.93382,-4.53447 z m 124.72472,0 -2.66924,10.66048 6.93383,4.53447 h -8.79896 l -2.66335,11.45056 -4.53446,-14.92198 z M 35.71475,282.48696 h 26.64521 l -23.18251,13.32381 -8.79595,-5.33625 z m 202.54029,0 h 26.64521 l 5.33325,7.98786 -8.79595,5.33324 z"
     sodipodi:nodetypes="cccccc" />
</svg>
